<?xml version="1.0" encoding="UTF-8" standalone="no"?>
<!-- Created with Inkscape (http://www.inkscape.org/) -->

<svg
   xmlns:dc="http://purl.org/dc/elements/1.1/"
   xmlns:cc="http://creativecommons.org/ns#"
   xmlns:rdf="http://www.w3.org/1999/02/22-rdf-syntax-ns#"
   xmlns:svg="http://www.w3.org/2000/svg"
   xmlns="http://www.w3.org/2000/svg"
   xmlns:sodipodi="http://sodipodi.sourceforge.net/DTD/sodipodi-0.dtd"
   xmlns:inkscape="http://www.inkscape.org/namespaces/inkscape"
   width="1000mm"
   height="297mm"
   viewBox="0 0 3543.3071 1052.3622"
   id="svg7416"
   version="1.1"
   inkscape:version="0.91 r13725"
   sodipodi:docname="slidetest.svg">
  <defs
     id="defs7418" />
  <sodipodi:namedview
     id="base"
     pagecolor="#ffffff"
     bordercolor="#666666"
     borderopacity="1.0"
     inkscape:pageopacity="0.0"
     inkscape:pageshadow="2"
     inkscape:zoom="0.24748738"
     inkscape:cx="-287.91166"
     inkscape:cy="1427.2089"
     inkscape:document-units="px"
     inkscape:current-layer="layer1"
     showgrid="false"
     inkscape:window-width="2560"
     inkscape:window-height="1378"
     inkscape:window-x="-8"
     inkscape:window-y="-8"
     inkscape:window-maximized="1"
     showguides="false" />
  <metadata
     id="metadata7421">
    <rdf:RDF>
      <cc:Work
         rdf:about="">
        <dc:format>image/svg+xml</dc:format>
        <dc:type
           rdf:resource="http://purl.org/dc/dcmitype/StillImage" />
        <dc:title />
      </cc:Work>
    </rdf:RDF>
  </metadata>
  <g
     inkscape:label="Ebene 1"
     inkscape:groupmode="layer"
     id="layer1">
    <rect
       style="opacity:1;fill:#0e0800;fill-opacity:0;fill-rule:nonzero;stroke:none;stroke-width:0.5;stroke-linecap:square;stroke-linejoin:miter;stroke-miterlimit:4;stroke-dasharray:none;stroke-dashoffset:0;stroke-opacity:1"
       id="rect4159"
       width="3523.4121"
       height="1187.9395"
       x="16.162441"
       y="-18.399485"
       class="overview" />
    <g
       id="g8036"
       class="slide clickable"
       slidenumber="0">
      <rect
         y="38.076466"
         x="31.42857"
         height="957.14288"
         width="1191.4286"
         id="rect7964"
         style="opacity:1;fill:#ffeed6;fill-opacity:1;fill-rule:nonzero;stroke:#000000;stroke-width:0.5;stroke-linecap:square;stroke-linejoin:miter;stroke-miterlimit:4;stroke-dasharray:none;stroke-dashoffset:0;stroke-opacity:1" />
      <text
         stepnumber="0"
         class="step"
         sodipodi:linespacing="125%"
         id="text7996"
         y="278.58533"
         x="181.82745"
         style="font-style:normal;font-weight:normal;font-size:40px;line-height:125%;font-family:Sans;letter-spacing:0px;word-spacing:0px;fill:#000000;fill-opacity:1;stroke:none;stroke-width:1px;stroke-linecap:butt;stroke-linejoin:miter;stroke-opacity:1"
         xml:space="preserve"><tspan
           style="font-style:normal;font-variant:normal;font-weight:normal;font-stretch:normal;font-size:80px;font-family:'Adobe Caslon Pro';-inkscape-font-specification:'Adobe Caslon Pro'"
           y="278.58533"
           x="181.82745"
           id="tspan7998"
           sodipodi:role="line">Step1</tspan></text>
      <text
         stepnumber="1"
         class="step"
         sodipodi:linespacing="125%"
         id="text7996-6"
         y="452.06885"
         x="180.30847"
         style="font-style:normal;font-weight:normal;font-size:40px;line-height:125%;font-family:Sans;letter-spacing:0px;word-spacing:0px;fill:#000000;fill-opacity:1;stroke:none;stroke-width:1px;stroke-linecap:butt;stroke-linejoin:miter;stroke-opacity:1"
         xml:space="preserve"><tspan
           style="font-style:normal;font-variant:normal;font-weight:normal;font-stretch:normal;font-size:80px;font-family:'Adobe Caslon Pro';-inkscape-font-specification:'Adobe Caslon Pro'"
           y="452.06885"
           x="180.30847"
           id="tspan7998-1"
           sodipodi:role="line">Step2</tspan></text>
      <text
         stepnumber="2"
         class="step"
         sodipodi:linespacing="125%"
         id="text7996-7"
         y="625.81506"
         x="182.3288"
         style="font-style:normal;font-weight:normal;font-size:40px;line-height:125%;font-family:Sans;letter-spacing:0px;word-spacing:0px;fill:#000000;fill-opacity:1;stroke:none;stroke-width:1px;stroke-linecap:butt;stroke-linejoin:miter;stroke-opacity:1"
         xml:space="preserve"><tspan
           id="tspan8032"
           style="font-style:normal;font-variant:normal;font-weight:normal;font-stretch:normal;font-size:80px;font-family:'Adobe Caslon Pro';-inkscape-font-specification:'Adobe Caslon Pro'"
           y="625.81506"
           x="182.3288"
           sodipodi:role="line">Step3</tspan></text>
    </g>
    <g
       id="g8051"
       class="slide clickable"
       slidenumber="1"
       transform="matrix(0.30554406,-0.95217794,0.95217794,0.30554406,739.48994,2109.7886)">
      <rect
         y="128.41118"
         x="1308.387"
         height="767.1994"
         width="954.99152"
         id="rect7964-1"
         style="opacity:1;fill:#ffeed6;fill-opacity:1;fill-rule:nonzero;stroke:#000000;stroke-width:0.40077579;stroke-linecap:square;stroke-linejoin:miter;stroke-miterlimit:4;stroke-dasharray:none;stroke-dashoffset:0;stroke-opacity:1" />
      <text
         stepnumber="0"
         class="step"
         sodipodi:linespacing="125%"
         id="text8045"
         y="375.55997"
         x="1424.3151"
         style="font-style:normal;font-variant:normal;font-weight:normal;font-stretch:normal;font-size:180px;line-height:125%;font-family:'Adobe Caslon Pro';-inkscape-font-specification:'Adobe Caslon Pro';letter-spacing:0px;word-spacing:0px;fill:#000000;fill-opacity:1;stroke:none;stroke-width:1px;stroke-linecap:butt;stroke-linejoin:miter;stroke-opacity:1"
         xml:space="preserve"><tspan
           y="375.55997"
           x="1424.3151"
           id="tspan8047"
           sodipodi:role="line">Step1</tspan></text>
      <path
         stepnumber="1"
         class="step"
         inkscape:connector-curvature="0"
         d="m 1486.0356,524.06782 c -0.3706,-0.16861 -0.8742,-0.1752 -1.1118,-0.50583 -8.0148,-11.15268 19.3807,-19.57886 30.253,-27.97007 0.7497,-0.57857 1.7924,-0.6498 2.729,-0.78931 0.6081,-0.0906 4.9313,0.11991 5.3303,0.13634 10.8371,-3.05985 0.6457,-1.00188 9.6143,-0.90539 1.917,0.0206 3.8124,-0.64333 5.7265,-0.53474 1.4623,0.083 2.7913,1.02425 4.254,1.10095 7.7225,-0.72242 4.0055,-0.70698 11.1495,-0.19318 6.94,-0.26844 13.4113,2.37416 20.0648,3.88195 1.8021,0.4084 3.7188,0.40633 5.4349,1.09164 1.4658,0.5854 2.6176,1.7646 3.9264,2.6469 1.6868,2.85234 5.1169,3.74823 7.2482,6.06935 1.038,1.13033 1.4761,2.70385 2.4028,3.927 0.8881,1.1721 2.3896,1.89028 3.0137,3.22181 0.6869,1.46555 0.466,3.20386 0.7454,4.79812 0.2575,1.46904 0.5765,2.9266 0.8648,4.3899 0.8903,6.89582 -1.2032,13.28389 -2.5549,19.91969 -2.837,13.92767 1.4147,-4.85457 -1.8648,9.30156 -0.8226,4.80167 -2.8565,9.28544 -3.9861,14.00162 -0.3258,1.36074 -0.3307,2.78966 -0.7038,4.13823 -0.9042,3.269 -2.2527,6.40077 -3.2394,9.64584 -0.4242,1.5917 -1.1178,3.13514 -1.2726,4.7751 -0.1184,1.25426 0.4206,2.49149 0.4679,3.75044 0.1106,2.94575 -0.034,5.8972 -0.1713,8.84181 -0.077,1.65587 -0.5104,3.29852 -0.4313,4.95432 0.067,1.40683 0.5772,2.75711 0.8657,4.13567 0.1234,0.39739 2.4656,7.98236 2.6076,8.26828 2.6902,5.41781 7.9354,8.39193 13.0013,11.12718 6.6607,2.17561 13.9259,3.73144 20.9717,2.62269 19.0619,-2.99967 -3.3812,-0.95284 12.4686,-2.17804 2.3622,-0.78857 4.7185,-1.59485 7.0865,-2.3657 6.4878,-2.11192 6.7961,-1.96423 13.2586,-4.59025 7.1152,-2.8913 13.9631,-6.41356 20.969,-9.55466 13.6183,-6.91958 27.6381,-12.94174 41.5772,-19.15613 4.9342,-1.64623 9.3658,-4.4188 14.1428,-6.41196 1.9724,-0.82298 4.0801,-1.28947 6.0597,-2.09499 2.4819,-1.00987 4.8033,-2.3966 7.3093,-3.34494 1.956,-0.7402 4.0379,-1.09396 6.0377,-1.70595 2.2738,-0.69583 4.5203,-1.47781 6.7805,-2.21672 6.4636,-1.2421 13.0065,-3.16757 19.5863,-3.75173 1.904,-0.16904 3.8227,0.10441 5.7341,0.0772 2.0738,-0.0295 4.1525,-0.44262 6.2173,-0.24724 1.6307,0.15429 3.162,0.85621 4.743,1.28432 10.3687,1.31137 1.0442,-0.63097 9.2299,3.03903 3.8741,1.73695 5.3891,0.73396 8.4408,3.90874 2.8521,4.83541 1.0831,2.73638 5.2705,6.32776 2.6166,2.91369 4.1596,6.38862 5.6543,9.94385 0,0 -30.3752,24.3558 -30.3752,24.3558 l 0,0 c -2.3504,-2.92141 -3.4895,-5.87267 -6.4463,-8.16794 -0.4881,-1.15564 -0.7062,-2.46745 -1.4644,-3.46692 -0.7453,-0.98261 -1.9419,-1.52107 -2.9044,-2.29227 -0.9683,-0.7759 -1.8317,-1.69769 -2.8879,-2.34891 -3.7431,-2.30778 -8.2523,-3.17815 -12.5019,-3.91324 -11.6561,-1.35092 -23.5212,0.60049 -34.8315,3.47268 -12.6746,3.85812 0.3647,-0.3769 -13.5056,5.0671 -1.971,0.7736 -4.043,1.27081 -6.0153,2.04085 -6.887,2.68877 -13.2432,6.55871 -20.3251,8.76329 -14.0388,6.23629 -27.6971,13.27873 -41.7635,19.46355 -17.78,8.87299 1.729,-0.44441 -13.4432,5.74227 -6.216,2.53468 -8.696,4.49066 -15.061,6.53589 -1.9963,0.64148 -4.1099,0.84137 -6.1435,1.35287 -2.3725,0.59676 -4.7132,1.31377 -7.0698,1.97065 -7.3473,1.71647 -12.0967,2.49856 -19.637,2.18197 -2.067,-0.0868 -4.154,-0.0196 -6.1967,-0.34684 -0.3777,-0.0605 -10.4545,-2.98156 -10.7395,-3.06381 -0.1336,-0.0916 -8.2075,-5.62148 -8.3125,-5.7185 -4.6079,-4.25749 -7.2525,-10.89628 -9.4585,-16.56857 -0.2369,-1.47253 -1.3105,-7.74858 -1.3151,-9.31538 -0.01,-1.72124 0.5195,-3.41574 0.5251,-5.13699 0,-1.40393 -0.4903,-2.77871 -0.4948,-4.18265 -0.01,-3.01623 0.8201,-6.4667 1.3934,-9.39135 0.8522,-4.50994 1.4976,-9.08896 3.0184,-13.4406 0.6105,-1.74713 1.5852,-3.36439 2.0811,-5.14746 0.3668,-1.31895 0.3232,-2.71888 0.4848,-4.07832 0.5635,-1.64988 1.1271,-3.29977 1.6906,-4.94966 0.6618,-1.7342 1.4783,-3.41705 1.9855,-5.20262 0.8253,-2.90547 0.7842,-6.00269 1.5107,-8.93442 0.439,-1.77173 1.3632,-3.41881 1.65,-5.22146 0.425,-2.67145 -0.8768,-5.43588 -0.2335,-8.11179 0.4415,-7.16659 0.01,-5.26372 -3.0936,-11.11104 -0.6297,-1.18789 -0.77,-2.66334 -1.6485,-3.68116 -1.835,-2.12619 -5.2783,-2.40658 -6.8992,-4.8366 -1.8202,-1.10991 -5.6138,-3.57559 -7.6692,-4.20483 -1.6312,-0.49939 -3.3678,-0.5464 -5.0537,-0.80721 -5.0786,-0.78568 -10.166,-1.29503 -15.306,-1.48009 -1.8979,0.0936 -3.7958,0.3718 -5.6939,0.28084 -5.1172,-0.24521 -4.1951,-1.4819 -9.481,-1.19653 -2.0583,0.11112 -4.0453,0.84929 -6.0999,1.0157 -1.4744,0.11941 -6.1595,-0.30274 -7.8705,-0.43899 -9.9341,2.65885 0.9912,-0.11009 -6.261,1.37417 -0.6547,0.13399 -2.4216,0.9929 -1.9307,0.53946 9.2576,-8.55266 19.4139,-16.12629 28.3848,-24.97921 0.5611,-0.55367 -0.36,-1.58086 -0.8283,-2.21495 -0.1348,-0.18256 -0.4291,0.14776 -0.6437,0.22164 0,0 -29.0209,26.7611 -29.0209,26.7611 z"
         id="path8049"
         style="opacity:1;fill:#0e0800;fill-opacity:1;fill-rule:nonzero;stroke:none;stroke-width:0.5;stroke-linecap:square;stroke-linejoin:miter;stroke-miterlimit:4;stroke-dasharray:none;stroke-dashoffset:0;stroke-opacity:1" />
    </g>
    <g
       id="g8063"
       class="slide clickable"
       slidenumber="2">
      <rect
         y="38.409916"
         x="2313.5251"
         height="957.14288"
         width="1191.4286"
         id="rect7964-0"
         style="opacity:1;fill:#ffeed6;fill-opacity:1;fill-rule:nonzero;stroke:#000000;stroke-width:0.5;stroke-linecap:square;stroke-linejoin:miter;stroke-miterlimit:4;stroke-dasharray:none;stroke-dashoffset:0;stroke-opacity:1" />
      <rect
         y="169.48886"
         x="2458.7112"
         height="276.7818"
         width="452.54834"
         id="rect8057"
         style="opacity:1;fill:#0e0800;fill-opacity:1;fill-rule:nonzero;stroke:none;stroke-width:0.5;stroke-linecap:square;stroke-linejoin:miter;stroke-miterlimit:4;stroke-dasharray:none;stroke-dashoffset:0;stroke-opacity:1" />
      <text
         sodipodi:linespacing="125%"
         id="text8059"
         y="585.67169"
         x="2509.219"
         style="font-style:normal;font-weight:normal;font-size:40px;line-height:125%;font-family:Sans;letter-spacing:0px;word-spacing:0px;fill:#000000;fill-opacity:1;stroke:none;stroke-width:1px;stroke-linecap:butt;stroke-linejoin:miter;stroke-opacity:1"
         xml:space="preserve"><tspan
           y="585.67169"
           x="2509.219"
           id="tspan8061"
           sodipodi:role="line">NoStep</tspan></text>
    </g>
  </g>
</svg>
